{
  "accessors": [
    {
      "bufferView": 2,
      "componentType": 5126,
      "count": 133,
      "max": [
        1.3670773506164551,
        1.3361895084381104,
        1.39043128490448
      ],
      "min": [
        -1.3670773506164551,
        -0.10328226536512375,
        -1.247289776802063
      ],
      "type": "VEC3"
    },
    {
      "bufferView": 2,
      "byteOffset": 1596,
      "componentType": 5126,
      "count": 133,
      "max": [
        0.95595383644104004,
        0.99721193313598633,
        0.98087584972381592
      ],
      "min": [
        -0.95595383644104004,
        0.10156920552253723,
        -0.97003477811813354
      ],
      "type": "VEC3"
    },
    {
      "bufferView": 1,
      "componentType": 5126,
      "count": 133,
      "max": [
        0.57973963022232056,
        0.39515256881713867
      ],
      "min": [
        0.32604801654815674,
        0.010757982730865479
      ],
      "type": "VEC2"
    },
    {
      "bufferView": 0,
      "componentType": 5125,
      "count": 708,
      "max": [
        132
      ],
      "min": [
        0
      ],
      "type": "SCALAR"
    },
    {
      "bufferView": 2,
      "byteOffset": 3192,
      "componentType": 5126,
      "count": 140,
      "max": [
        1.3670773506164551,
        1.3030339479446411,
        1.39043128490448
      ],
      "min": [
        -1.3670773506164551,
        -0.15284585952758789,
        -1.247289776802063
      ],
      "type": "VEC3"
    },
    {
      "bufferView": 2,
      "byteOffset": 4872,
      "componentType": 5126,
      "count": 140,
      "max": [
        0.95595383644104004,
        0.29158073663711548,
        0.98087584972381592
      ],
      "min": [
        -0.95595383644104004,
        -0.99849796295166016,
        -0.97003477811813354
      ],
      "type": "VEC3"
    },
    {
      "bufferView": 1,
      "byteOffset": 1064,
      "componentType": 5126,
      "count": 140,
      "max": [
        0.2600054144859314,
        0.37205973267555237
      ],
      "min": [
        0.033584069460630417,
        0.029665898531675339
      ],
      "type": "VEC2"
    },
    {
      "bufferView": 0,
      "byteOffset": 2832,
      "componentType": 5125,
      "count": 792,
      "max": [
        139
      ],
      "min": [
        0
      ],
      "type": "SCALAR"
    },
    {
      "bufferView": 2,
      "byteOffset": 6552,
      "componentType": 5126,
      "count": 434,
      "max": [
        18.267623901367188,
        4.4826622009277344,
        18.507577896118164
      ],
      "min": [
        -18.267623901367188,
        -6.8169751167297363,
        -24.311302185058594
      ],
      "type": "VEC3"
    },
    {
      "bufferView": 2,
      "byteOffset": 11760,
      "componentType": 5126,
      "count": 434,
      "max": [
        1,
        1,
        1
      ],
      "min": [
        -1,
        -1,
        -0.99941790103912354
      ],
      "type": "VEC3"
    },
    {
      "bufferView": 1,
      "byteOffset": 2184,
      "componentType": 5126,
      "count": 434,
      "max": [
        0.26831799745559692,
        0.95534801483154297
      ],
      "min": [
        0.012911215424537659,
        0.80658304691314697
      ],
      "type": "VEC2"
    },
    {
      "bufferView": 0,
      "byteOffset": 6000,
      "componentType": 5125,
      "count": 1554,
      "max": [
        433
      ],
      "min": [
        0
      ],
      "type": "SCALAR"
    },
    {
      "bufferView": 2,
      "byteOffset": 16968,
      "componentType": 5126,
      "count": 18,
      "max": [
        1.778167724609375,
        0.75755417346954346,
        2.7292404174804688
      ],
      "min": [
        -3.0148105621337891,
        -0.54903304576873779,
        -2.7252883911132812
      ],
      "type": "VEC3"
    },
    {
      "bufferView": 2,
      "byteOffset": 17184,
      "componentType": 5126,
      "count": 18,
      "max": [
        0.92284518480300903,
        0.954326331615448,
        0.97341710329055786
      ],
      "min": [
        -0.92961728572845459,
        -0.94722229242324829,
        -0.97310042381286621
      ],
      "type": "VEC3"
    },
    {
      "bufferView": 1,
      "byteOffset": 5656,
      "componentType": 5126,
      "count": 18,
      "max": [
        0.93712151050567627,
        0.64252424240112305
      ],
      "min": [
        0.60422182083129883,
        0.44846439361572266
      ],
      "type": "VEC2"
    },
    {
      "bufferView": 0,
      "byteOffset": 12216,
      "componentType": 5125,
      "count": 60,
      "max": [
        17
      ],
      "min": [
        0
      ],
      "type": "SCALAR"
    },
    {
      "bufferView": 2,
      "byteOffset": 17400,
      "componentType": 5126,
      "count": 455,
      "max": [
        0.90757501125335693,
        0.67163372039794922,
        0.89976614713668823
      ],
      "min": [
        -0.89326649904251099,
        -0.67163378000259399,
        -0.90560317039489746
      ],
      "type": "VEC3"
    },
    {
      "bufferView": 2,
      "byteOffset": 22860,
      "componentType": 5126,
      "count": 455,
      "max": [
        1,
        0.98742592334747314,
        0.99878913164138794
      ],
      "min": [
        -0.99309110641479492,
        -0.98742592334747314,
        -0.99404680728912354
      ],
      "type": "VEC3"
    },
    {
      "bufferView": 1,
      "byteOffset": 5800,
      "componentType": 5126,
      "count": 455,
      "max": [
        0.98391741514205933,
        0.38320067524909973
      ],
      "min": [
        0.47247588634490967,
        -0.00033718394115567207
      ],
      "type": "VEC2"
    },
    {
      "bufferView": 0,
      "byteOffset": 12456,
      "componentType": 5125,
      "count": 1938,
      "max": [
        454
      ],
      "min": [
        0
      ],
      "type": "SCALAR"
    },
    {
      "bufferView": 2,
      "byteOffset": 28320,
      "componentType": 5126,
      "count": 18,
      "max": [
        3.0148105621337891,
        0.75755417346954346,
        2.7292404174804688
      ],
      "min": [
        -1.778167724609375,
        -0.54903304576873779,
        -2.7252883911132812
      ],
      "type": "VEC3"
    },
    {
      "bufferView": 2,
      "byteOffset": 28536,
      "componentType": 5126,
      "count": 18,
      "max": [
        0.92961728572845459,
        0.954326331615448,
        0.97341710329055786
      ],
      "min": [
        -0.92284518480300903,
        -0.94722229242324829,
        -0.97310042381286621
      ],
      "type": "VEC3"
    },
    {
      "bufferView": 1,
      "byteOffset": 9440,
      "componentType": 5126,
      "count": 18,
      "max": [
        0.94147336483001709,
        0.62563991546630859
      ],
      "min": [
        0.60796153545379639,
        0.43122324347496033
      ],
      "type": "VEC2"
    },
    {
      "bufferView": 0,
      "byteOffset": 20208,
      "componentType": 5125,
      "count": 60,
      "max": [
        17
      ],
      "min": [
        0
      ],
      "type": "SCALAR"
    },
    {
      "bufferView": 2,
      "byteOffset": 28752,
      "componentType": 5126,
      "count": 81,
      "max": [
        1.0772234201431274,
        1.1381486654281616,
        1.1195250749588013
      ],
      "min": [
        -1.065768837928772,
        -0.089613325893878937,
        -1.0015811920166016
      ],
      "type": "VEC3"
    },
    {
      "bufferView": 2,
      "byteOffset": 29724,
      "componentType": 5126,
      "count": 81,
      "max": [
        0.75178539752960205,
        0.98016250133514404,
        0.8273773193359375
      ],
      "min": [
        -0.73887598514556885,
        0.56164610385894775,
        -0.75880509614944458
      ],
      "type": "VEC3"
    },
    {
      "bufferView": 1,
      "byteOffset": 9584,
      "componentType": 5126,
      "count": 81,
      "max": [
        0.94783389568328857,
        0.97990709543228149
      ],
      "min": [
        0.59122860431671143,
        0.69978046417236328
      ],
      "type": "VEC2"
    },
    {
      "bufferView": 0,
      "byteOffset": 20448,
      "componentType": 5125,
      "count": 384,
      "max": [
        80
      ],
      "min": [
        0
      ],
      "type": "SCALAR"
    },
    {
      "bufferView": 2,
      "byteOffset": 30696,
      "componentType": 5126,
      "count": 155,
      "max": [
        2.6782970428466797,
        8.7825784683227539,
        6.0945835113525391
      ],
      "min": [
        -3.8621253967285156,
        -21.961587905883789,
        -6.0094480514526367
      ],
      "type": "VEC3"
    },
    {
      "bufferView": 2,
      "byteOffset": 32556,
      "componentType": 5126,
      "count": 155,
      "max": [
        0.9978366494178772,
        0.93700218200683594,
        0.99955964088439941
      ],
      "min": [
        -0.99168747663497925,
        -0.69852232933044434,
        -0.9834212064743042
      ],
      "type": "VEC3"
    },
    {
      "bufferView": 1,
      "byteOffset": 10232,
      "componentType": 5126,
      "count": 155,
      "max": [
        0.54982089996337891,
        0.65036654472351074
      ],
      "min": [
        0.044044703245162964,
        0.20600476861000061
      ],
      "type": "VEC2"
    },
    {
      "bufferView": 0,
      "byteOffset": 21984,
      "componentType": 5125,
      "count": 609,
      "max": [
        154
      ],
      "min": [
        0
      ],
      "type": "SCALAR"
    },
    {
      "bufferView": 2,
      "byteOffset": 34416,
      "componentType": 5126,
      "count": 178,
      "max": [
        0.66987454891204834,
        0,
        2.3759164810180664
      ],
      "min": [
        -0.76467061042785645,
        -11.696105003356934,
        -2.3824071884155273
      ],
      "type": "VEC3"
    },
    {
      "bufferView": 2,
      "byteOffset": 36552,
      "componentType": 5126,
      "count": 178,
      "max": [
        1,
        1,
        0.99998104572296143
      ],
      "min": [
        -1,
        -1,
        -0.99984443187713623
      ],
      "type": "VEC3"
    },
    {
      "bufferView": 1,
      "byteOffset": 11472,
      "componentType": 5126,
      "count": 178,
      "max": [
        0.88763821125030518,
        0.62335991859436035
      ],
      "min": [
        0.064344391226768494,
        0.022575832903385162
      ],
      "type": "VEC2"
    },
    {
      "bufferView": 0,
      "byteOffset": 24420,
      "componentType": 5125,
      "count": 396,
      "max": [
        177
      ],
      "min": [
        0
      ],
      "type": "SCALAR"
    }
  ],
  "asset": {
    "extras": {
      "author": "Elvair Lima (https://sketchfab.com/elvair)",
      "license": "CC-BY-4.0 (http://creativecommons.org/licenses/by/4.0/)",
      "source": "https://sketchfab.com/3d-models/wheelbarrow-b06021b4e766452d8e33277e09ae9ed7",
      "title": "Wheelbarrow"
    },
    "generator": "Sketchfab-9.75.0",
    "version": "2.0"
  },
  "bufferViews": [
    {
      "buffer": 0,
      "byteLength": 26004,
      "byteOffset": 0,
      "name": "floatBufferViews",
      "target": 34963
    },
    {
      "buffer": 0,
      "byteLength": 12896,
      "byteOffset": 26004,
      "byteStride": 8,
      "name": "floatBufferViews",
      "target": 34962
    },
    {
      "buffer": 0,
      "byteLength": 38688,
      "byteOffset": 38900,
      "byteStride": 12,
      "name": "floatBufferViews",
      "target": 34962
    }
  ],
  "buffers": [
    {
      "byteLength": 77588,
      "uri": "scene.bin"
    }
  ],
  "images": [
    {
      "uri": "textures/Tray_baseColor.png"
    }
  ],
  "materials": [
    {
      "doubleSided": true,
      "emissiveFactor": [
        0,
        0,
        0
      ],
      "name": "Tray",
      "pbrMetallicRoughness": {
        "baseColorFactor": [
          1,
          1,
          1,
          1
        ],
        "baseColorTexture": {
          "index": 0,
          "texCoord": 0
        },
        "metallicFactor": 0.10000000000000001,
        "roughnessFactor": 0.94999999999999996
      }
    },
    {
      "doubleSided": true,
      "emissiveFactor": [
        0,
        0,
        0
      ],
      "name": "Tray_Under",
      "pbrMetallicRoughness": {
        "baseColorFactor": [
          1,
          1,
          1,
          1
        ],
        "baseColorTexture": {
          "index": 0,
          "texCoord": 0
        },
        "metallicFactor": 0,
        "roughnessFactor": 0.59999999999999998
      }
    },
    {
      "doubleSided": true,
      "emissiveFactor": [
        0,
        0,
        0
      ],
      "name": "Cylinder_2",
      "pbrMetallicRoughness": {
        "baseColorFactor": [
          1,
          1,
          1,
          1
        ],
        "baseColorTexture": {
          "index": 0,
          "texCoord": 0
        },
        "metallicFactor": 0.20000000000000001,
        "roughnessFactor": 0.29999999999999999
      }
    },
    {
      "doubleSided": true,
      "emissiveFactor": [
        0,
        0,
        0
      ],
      "name": "Plastic",
      "pbrMetallicRoughness": {
        "baseColorFactor": [
          1,
          1,
          1,
          1
        ],
        "baseColorTexture": {
          "index": 0,
          "texCoord": 0
        },
        "metallicFactor": 0,
        "roughnessFactor": 0.59999999999999998
      }
    },
    {
      "doubleSided": true,
      "emissiveFactor": [
        0,
        0,
        0
      ],
      "name": "Wheel",
      "pbrMetallicRoughness": {
        "baseColorFactor": [
          1,
          1,
          1,
          1
        ],
        "baseColorTexture": {
          "index": 0,
          "texCoord": 0
        },
        "metallicFactor": 0,
        "roughnessFactor": 0.85999999999999999
      }
    },
    {
      "doubleSided": true,
      "emissiveFactor": [
        0,
        0,
        0
      ],
      "name": "Sand",
      "pbrMetallicRoughness": {
        "baseColorFactor": [
          1,
          1,
          1,
          1
        ],
        "baseColorTexture": {
          "index": 0,
          "texCoord": 0
        },
        "metallicFactor": 0,
        "roughnessFactor": 1
      }
    },
    {
      "doubleSided": true,
      "emissiveFactor": [
        0,
        0,
        0
      ],
      "name": "Shovel",
      "pbrMetallicRoughness": {
        "baseColorFactor": [
          1,
          1,
          1,
          1
        ],
        "baseColorTexture": {
          "index": 0,
          "texCoord": 0
        },
        "metallicFactor": 0,
        "roughnessFactor": 0.94999999999999996
      }
    }
  ],
  "meshes": [
    {
      "primitives": [
        {
          "attributes": {
            "NORMAL": 1,
            "POSITION": 0,
            "TEXCOORD_0": 2
          },
          "indices": 3,
          "material": 0,
          "mode": 4
        }
      ]
    },
    {
      "primitives": [
        {
          "attributes": {
            "NORMAL": 5,
            "POSITION": 4,
            "TEXCOORD_0": 6
          },
          "indices": 7,
          "material": 1,
          "mode": 4
        }
      ]
    },
    {
      "primitives": [
        {
          "attributes": {
            "NORMAL": 9,
            "POSITION": 8,
            "TEXCOORD_0": 10
          },
          "indices": 11,
          "material": 2,
          "mode": 4
        }
      ]
    },
    {
      "primitives": [
        {
          "attributes": {
            "NORMAL": 13,
            "POSITION": 12,
            "TEXCOORD_0": 14
          },
          "indices": 15,
          "material": 3,
          "mode": 4
        }
      ]
    },
    {
      "primitives": [
        {
          "attributes": {
            "NORMAL": 17,
            "POSITION": 16,
            "TEXCOORD_0": 18
          },
          "indices": 19,
          "material": 4,
          "mode": 4
        }
      ]
    },
    {
      "primitives": [
        {
          "attributes": {
            "NORMAL": 21,
            "POSITION": 20,
            "TEXCOORD_0": 22
          },
          "indices": 23,
          "material": 3,
          "mode": 4
        }
      ]
    },
    {
      "primitives": [
        {
          "attributes": {
            "NORMAL": 25,
            "POSITION": 24,
            "TEXCOORD_0": 26
          },
          "indices": 27,
          "material": 5,
          "mode": 4
        }
      ]
    },
    {
      "primitives": [
        {
          "attributes": {
            "NORMAL": 29,
            "POSITION": 28,
            "TEXCOORD_0": 30
          },
          "indices": 31,
          "material": 6,
          "mode": 4
        }
      ]
    },
    {
      "primitives": [
        {
          "attributes": {
            "NORMAL": 33,
            "POSITION": 32,
            "TEXCOORD_0": 34
          },
          "indices": 35,
          "material": 6,
          "mode": 4
        }
      ]
    }
  ],
  "nodes": [
    {
      "children": [
        1
      ],
      "name": "RootNode (gltf orientation matrix)",
      "rotation": [
        -0.70710678118654746,
        -0,
        -0,
        0.70710678118654757
      ]
    },
    {
      "children": [
        2
      ],
      "name": "RootNode (model correction matrix)"
    },
    {
      "children": [
        3
      ],
      "name": "root"
    },
    {
      "children": [
        4,
        7,
        9,
        11,
        13,
        15,
        17,
        19
      ],
      "matrix": [
        1,
        0,
        0,
        0,
        0,
        2.2204460492503131e-16,
        1,
        0,
        0,
        -1,
        2.2204460492503131e-16,
        0,
        0,
        0,
        0,
        1
      ],
      "name": "GLTF_SceneRootNode"
    },
    {
      "children": [
        5,
        6
      ],
      "matrix": [
        1.057858943939209,
        0,
        0,
        0,
        0,
        1,
        0,
        0,
        0,
        0,
        1.7126952409744263,
        0,
        0,
        1.5871129035949707,
        -0.33440741896629333,
        1
      ],
      "name": "Tray_0"
    },
    {
      "mesh": 0,
      "name": ""
    },
    {
      "mesh": 1,
      "name": ""
    },
    {
      "children": [
        8
      ],
      "matrix": [
        0.074213549494743347,
        0,
        0,
        0,
        0,
        0,
        0.74270051717758179,
        0,
        0,
        -0.074213549494743347,
        0,
        0,
        -0.0052674710750579834,
        1.3687044382095337,
        -0.020301908254623413,
        1
      ],
      "name": "Support_1"
    },
    {
      "mesh": 2,
      "name": ""
    },
    {
      "children": [
        10
      ],
      "matrix": [
        0.074213549494743347,
        0,
        0,
        0,
        0,
        0,
        0.74270051717758179,
        0,
        0,
        -0.074213549494743347,
        0,
        0,
        -1.288745641708374,
        3.1539096832275391,
        -5.6014714241027832,
        1
      ],
      "name": "Handle.002_2"
    },
    {
      "mesh": 3,
      "name": ""
    },
    {
      "children": [
        12
      ],
      "matrix": [
        8.1657215711997208e-08,
        -0.96872270107268954,
        0,
        0,
        1.0283049345016444,
        8.6679622312279473e-08,
        0,
        0,
        0,
        0,
        0.96872270107269287,
        0,
        0.0030518844723701477,
        0.88049882650375366,
        2.135974645614624,
        1
      ],
      "name": "Wheel_3"
    },
    {
      "mesh": 4,
      "name": ""
    },
    {
      "children": [
        14
      ],
      "matrix": [
        0.074213549494743347,
        0,
        0,
        0,
        0,
        0,
        0.74270051717758179,
        0,
        0,
        -0.074213549494743347,
        0,
        0,
        1.288745641708374,
        3.1539096832275391,
        -5.6014714241027832,
        1
      ],
      "name": "Handle.001_4"
    },
    {
      "mesh": 5,
      "name": ""
    },
    {
      "children": [
        16
      ],
      "matrix": [
        1.1892642974853516,
        0,
        0,
        0,
        0,
        1,
        0,
        0,
        0,
        0,
        1.9759290218353271,
        0,
        0,
        2.3748829364776611,
        -0.29334065318107605,
        1
      ],
      "name": "Sand_5"
    },
    {
      "mesh": 6,
      "name": ""
    },
    {
      "children": [
        18
      ],
      "matrix": [
        0.093089660742407404,
        -0.035989870537267113,
        -1.5283601805229604e-09,
        0,
        -0.054865229454995619,
        -0.14191175239797596,
        -1.2487676038120015e-08,
        0,
        1.528359952333636e-09,
        8.1915227783843792e-09,
        -0.099804572761058447,
        0,
        -1.9642926454544067,
        1.2894682884216309,
        0.30788278579711914,
        1
      ],
      "name": "Shovel_6"
    },
    {
      "mesh": 7,
      "name": ""
    },
    {
      "children": [
        20
      ],
      "matrix": [
        0.11529169084877992,
        -0.033363836458578926,
        -9.1057145128085251e-09,
        0,
        -0.0203262537899358,
        -0.070239169616244351,
        -3.9126130802091759e-08,
        0,
        9.1057145128085251e-09,
        6.4222253782165347e-08,
        -0.12002216279504929,
        0,
        -1.1376174688339233,
        4.1825137138366699,
        0.30311667919158936,
        1
      ],
      "name": "Handle_7"
    },
    {
      "mesh": 8,
      "name": ""
    }
  ],
  "samplers": [
    {
      "magFilter": 9729,
      "minFilter": 9987,
      "wrapS": 10497,
      "wrapT": 10497
    }
  ],
  "scene": 0,
  "scenes": [
    {
      "name": "OSG_Scene",
      "nodes": [
        0
      ]
    }
  ],
  "textures": [
    {
      "sampler": 0,
      "source": 0
    }
  ]
}

