{
  "accessors": [
    {
      "bufferView": 2,
      "componentType": 5126,
      "count": 6402,
      "max": [
        -0.21513600647449493,
        -0.064622096717357635,
        0.77841001749038696
      ],
      "min": [
        -0.56847399473190308,
        -0.12272399663925171,
        -0.77841001749038696
      ],
      "type": "VEC3"
    },
    {
      "bufferView": 2,
      "byteOffset": 76824,
      "componentType": 5126,
      "count": 6402,
      "max": [
        1,
        1,
        1
      ],
      "min": [
        -1,
        -1,
        -1
      ],
      "type": "VEC3"
    },
    {
      "bufferView": 3,
      "componentType": 5126,
      "count": 6402,
      "max": [
        1,
        1,
        1,
        1
      ],
      "min": [
        -1,
        -1,
        -1,
        -1
      ],
      "type": "VEC4"
    },
    {
      "bufferView": 1,
      "componentType": 5126,
      "count": 6402,
      "max": [
        0.9990839958190918,
        0.99982500076293945
      ],
      "min": [
        0.0032282499596476555,
        0.00022345299657899886
      ],
      "type": "VEC2"
    },
    {
      "bufferView": 0,
      "componentType": 5125,
      "count": 20964,
      "max": [
        6401
      ],
      "min": [
        0
      ],
      "type": "SCALAR"
    },
    {
      "bufferView": 2,
      "byteOffset": 153648,
      "componentType": 5126,
      "count": 796,
      "max": [
        0.58483201265335083,
        -0.15729500353336334,
        0.76974600553512573
      ],
      "min": [
        -0.58483201265335083,
        -0.89730101823806763,
        -0.76974600553512573
      ],
      "type": "VEC3"
    },
    {
      "bufferView": 2,
      "byteOffset": 163200,
      "componentType": 5126,
      "count": 796,
      "max": [
        1,
        1,
        1
      ],
      "min": [
        -1,
        -1,
        -1
      ],
      "type": "VEC3"
    },
    {
      "bufferView": 3,
      "byteOffset": 102432,
      "componentType": 5126,
      "count": 796,
      "max": [
        0.98569673299789429,
        0.96736937761306763,
        0.96898394823074341,
        1
      ],
      "min": [
        -0.98569673299789429,
        -0.93875300884246826,
        -0.96898394823074341,
        -1
      ],
      "type": "VEC4"
    },
    {
      "bufferView": 1,
      "byteOffset": 51216,
      "componentType": 5126,
      "count": 796,
      "max": [
        0.34115499258041382,
        0.99991798400878906
      ],
      "min": [
        0.0040455600246787071,
        0.70763397216796875
      ],
      "type": "VEC2"
    },
    {
      "bufferView": 0,
      "byteOffset": 83856,
      "componentType": 5125,
      "count": 2832,
      "max": [
        795
      ],
      "min": [
        0
      ],
      "type": "SCALAR"
    },
    {
      "bufferView": 2,
      "byteOffset": 172752,
      "componentType": 5126,
      "count": 4780,
      "max": [
        0.60775697231292725,
        0.022166399285197258,
        0.77174597978591919
      ],
      "min": [
        -0.60775697231292725,
        -1,
        -0.77174597978591919
      ],
      "type": "VEC3"
    },
    {
      "bufferView": 2,
      "byteOffset": 230112,
      "componentType": 5126,
      "count": 4780,
      "max": [
        1,
        1,
        1
      ],
      "min": [
        -1,
        -1,
        -1
      ],
      "type": "VEC3"
    },
    {
      "bufferView": 3,
      "byteOffset": 115168,
      "componentType": 5126,
      "count": 4780,
      "max": [
        1,
        0.96592593193054199,
        1,
        1
      ],
      "min": [
        -1,
        -1,
        -1,
        -1
      ],
      "type": "VEC4"
    },
    {
      "bufferView": 1,
      "byteOffset": 57584,
      "componentType": 5126,
      "count": 4780,
      "max": [
        0.499114990234375,
        0.50862497091293335
      ],
      "min": [
        0,
        0
      ],
      "type": "VEC2"
    },
    {
      "bufferView": 0,
      "byteOffset": 95184,
      "componentType": 5125,
      "count": 19488,
      "max": [
        4779
      ],
      "min": [
        0
      ],
      "type": "SCALAR"
    },
    {
      "bufferView": 2,
      "byteOffset": 287472,
      "componentType": 5126,
      "count": 6402,
      "max": [
        0.13871300220489502,
        -0.064622096717357635,
        0.77841001749038696
      ],
      "min": [
        -0.21462500095367432,
        -0.12272399663925171,
        -0.77841001749038696
      ],
      "type": "VEC3"
    },
    {
      "bufferView": 2,
      "byteOffset": 364296,
      "componentType": 5126,
      "count": 6402,
      "max": [
        1,
        1,
        1
      ],
      "min": [
        -1,
        -1,
        -1
      ],
      "type": "VEC3"
    },
    {
      "bufferView": 3,
      "byteOffset": 191648,
      "componentType": 5126,
      "count": 6402,
      "max": [
        1,
        1,
        1,
        1
      ],
      "min": [
        -1,
        -1,
        -1,
        -1
      ],
      "type": "VEC4"
    },
    {
      "bufferView": 1,
      "byteOffset": 95824,
      "componentType": 5126,
      "count": 6402,
      "max": [
        0.9990839958190918,
        0.99982500076293945
      ],
      "min": [
        0.0032282499596476555,
        0.00022345299657899886
      ],
      "type": "VEC2"
    },
    {
      "bufferView": 0,
      "byteOffset": 173136,
      "componentType": 5125,
      "count": 20964,
      "max": [
        6401
      ],
      "min": [
        0
      ],
      "type": "SCALAR"
    },
    {
      "bufferView": 2,
      "byteOffset": 441120,
      "componentType": 5126,
      "count": 4780,
      "max": [
        0.60775697231292725,
        1,
        0.77174502611160278
      ],
      "min": [
        -0.60775697231292725,
        -0.022166600450873375,
        -0.77174597978591919
      ],
      "type": "VEC3"
    },
    {
      "bufferView": 2,
      "byteOffset": 498480,
      "componentType": 5126,
      "count": 4780,
      "max": [
        1,
        1,
        1
      ],
      "min": [
        -1,
        -1,
        -1
      ],
      "type": "VEC3"
    },
    {
      "bufferView": 3,
      "byteOffset": 294080,
      "componentType": 5126,
      "count": 4780,
      "max": [
        1,
        0.96592593193054199,
        1,
        1
      ],
      "min": [
        -1,
        -1,
        -1,
        -1
      ],
      "type": "VEC4"
    },
    {
      "bufferView": 1,
      "byteOffset": 147040,
      "componentType": 5126,
      "count": 4780,
      "max": [
        0.499114990234375,
        0.50862497091293335
      ],
      "min": [
        0,
        0
      ],
      "type": "VEC2"
    },
    {
      "bufferView": 0,
      "byteOffset": 256992,
      "componentType": 5125,
      "count": 19488,
      "max": [
        4779
      ],
      "min": [
        0
      ],
      "type": "SCALAR"
    },
    {
      "bufferView": 2,
      "byteOffset": 555840,
      "componentType": 5126,
      "count": 398,
      "max": [
        0.58483201265335083,
        0.8205379843711853,
        0.76974600553512573
      ],
      "min": [
        0.53209501504898071,
        0.0805324986577034,
        -0.76974600553512573
      ],
      "type": "VEC3"
    },
    {
      "bufferView": 2,
      "byteOffset": 560616,
      "componentType": 5126,
      "count": 398,
      "max": [
        1,
        1,
        1
      ],
      "min": [
        -1,
        -1,
        -1
      ],
      "type": "VEC3"
    },
    {
      "bufferView": 3,
      "byteOffset": 370560,
      "componentType": 5126,
      "count": 398,
      "max": [
        0.98549526929855347,
        0.96735072135925293,
        0.96898388862609863,
        -1
      ],
      "min": [
        -0.98569673299789429,
        -0.93875294923782349,
        -0.96898388862609863,
        -1
      ],
      "type": "VEC4"
    },
    {
      "bufferView": 1,
      "byteOffset": 185280,
      "componentType": 5126,
      "count": 398,
      "max": [
        0.34115499258041382,
        0.99991798400878906
      ],
      "min": [
        0.0040455600246787071,
        0.70763397216796875
      ],
      "type": "VEC2"
    },
    {
      "bufferView": 0,
      "byteOffset": 334944,
      "componentType": 5125,
      "count": 1416,
      "max": [
        397
      ],
      "min": [
        0
      ],
      "type": "SCALAR"
    },
    {
      "bufferView": 2,
      "byteOffset": 565392,
      "componentType": 5126,
      "count": 6402,
      "max": [
        0.50699901580810547,
        0.44642001390457153,
        0.77841001749038696
      ],
      "min": [
        0.15366099774837494,
        0.38831800222396851,
        -0.77841001749038696
      ],
      "type": "VEC3"
    },
    {
      "bufferView": 2,
      "byteOffset": 642216,
      "componentType": 5126,
      "count": 6402,
      "max": [
        1,
        1,
        1
      ],
      "min": [
        -1,
        -1,
        -1
      ],
      "type": "VEC3"
    },
    {
      "bufferView": 3,
      "byteOffset": 376928,
      "componentType": 5126,
      "count": 6402,
      "max": [
        1,
        1,
        1,
        1
      ],
      "min": [
        -1,
        -1,
        -1,
        -1
      ],
      "type": "VEC4"
    },
    {
      "bufferView": 1,
      "byteOffset": 188464,
      "componentType": 5126,
      "count": 6402,
      "max": [
        0.9990839958190918,
        0.99982500076293945
      ],
      "min": [
        0.0032282499596476555,
        0.00022345299657899886
      ],
      "type": "VEC2"
    },
    {
      "bufferView": 0,
      "byteOffset": 340608,
      "componentType": 5125,
      "count": 20964,
      "max": [
        6401
      ],
      "min": [
        0
      ],
      "type": "SCALAR"
    }
  ],
  "asset": {
    "extras": {
      "author": "kubassa (https://sketchfab.com/kubassa)",
      "license": "CC-BY-4.0 (http://creativecommons.org/licenses/by/4.0/)",
      "source": "https://sketchfab.com/3d-models/scaffolding-9f1bc274c8c941d091e2331aa07b5f5b",
      "title": "Scaffolding"
    },
    "generator": "Sketchfab-4.94.0",
    "version": "2.0"
  },
  "bufferViews": [
    {
      "buffer": 0,
      "byteLength": 424464,
      "byteOffset": 0,
      "name": "floatBufferViews",
      "target": 34963
    },
    {
      "buffer": 0,
      "byteLength": 239680,
      "byteOffset": 424464,
      "byteStride": 8,
      "name": "floatBufferViews",
      "target": 34962
    },
    {
      "buffer": 0,
      "byteLength": 719040,
      "byteOffset": 664144,
      "byteStride": 12,
      "name": "floatBufferViews",
      "target": 34962
    },
    {
      "buffer": 0,
      "byteLength": 479360,
      "byteOffset": 1383184,
      "byteStride": 16,
      "name": "floatBufferViews",
      "target": 34962
    }
  ],
  "buffers": [
    {
      "byteLength": 1862544,
      "uri": "scene.bin"
    }
  ],
  "images": [
    {
      "uri": "textures/Scene_Material_normal.jpeg"
    },
    {
      "uri": "textures/Scene_Material_metallicRoughness.png"
    }
  ],
  "materials": [
    {
      "doubleSided": true,
      "name": "Scene_Material",
      "normalTexture": {
        "index": 0,
        "scale": 1,
        "texCoord": 0
      },
      "occlusionTexture": {
        "index": 1,
        "strength": 1,
        "texCoord": 0
      },
      "pbrMetallicRoughness": {
        "baseColorFactor": [
          0.34999999999999998,
          0.34999999999999998,
          0.34999999999999998,
          1
        ],
        "metallicFactor": 0,
        "roughnessFactor": 1
      }
    }
  ],
  "meshes": [
    {
      "name": "defaultMaterial",
      "primitives": [
        {
          "attributes": {
            "NORMAL": 1,
            "POSITION": 0,
            "TANGENT": 2,
            "TEXCOORD_0": 3
          },
          "indices": 4,
          "material": 0,
          "mode": 4
        }
      ]
    },
    {
      "name": "defaultMaterial",
      "primitives": [
        {
          "attributes": {
            "NORMAL": 6,
            "POSITION": 5,
            "TANGENT": 7,
            "TEXCOORD_0": 8
          },
          "indices": 9,
          "material": 0,
          "mode": 4
        }
      ]
    },
    {
      "name": "defaultMaterial",
      "primitives": [
        {
          "attributes": {
            "NORMAL": 11,
            "POSITION": 10,
            "TANGENT": 12,
            "TEXCOORD_0": 13
          },
          "indices": 14,
          "material": 0,
          "mode": 4
        }
      ]
    },
    {
      "name": "defaultMaterial",
      "primitives": [
        {
          "attributes": {
            "NORMAL": 16,
            "POSITION": 15,
            "TANGENT": 17,
            "TEXCOORD_0": 18
          },
          "indices": 19,
          "material": 0,
          "mode": 4
        }
      ]
    },
    {
      "name": "defaultMaterial",
      "primitives": [
        {
          "attributes": {
            "NORMAL": 21,
            "POSITION": 20,
            "TANGENT": 22,
            "TEXCOORD_0": 23
          },
          "indices": 24,
          "material": 0,
          "mode": 4
        }
      ]
    },
    {
      "name": "defaultMaterial",
      "primitives": [
        {
          "attributes": {
            "NORMAL": 26,
            "POSITION": 25,
            "TANGENT": 27,
            "TEXCOORD_0": 28
          },
          "indices": 29,
          "material": 0,
          "mode": 4
        }
      ]
    },
    {
      "name": "defaultMaterial",
      "primitives": [
        {
          "attributes": {
            "NORMAL": 31,
            "POSITION": 30,
            "TANGENT": 32,
            "TEXCOORD_0": 33
          },
          "indices": 34,
          "material": 0,
          "mode": 4
        }
      ]
    }
  ],
  "nodes": [
    {
      "children": [
        1
      ],
      "name": "RootNode (gltf orientation matrix)",
      "rotation": [
        -0.70710678118654746,
        -0,
        -0,
        0.70710678118654757
      ]
    },
    {
      "children": [
        2
      ],
      "name": "RootNode (model correction matrix)"
    },
    {
      "children": [
        3
      ],
      "matrix": [
        1,
        0,
        0,
        0,
        0,
        -4.3711390063094768e-08,
        0.999999999999999,
        0,
        0,
        -0.999999999999999,
        -4.3711390063094768e-08,
        0,
        0,
        0,
        0,
        1
      ],
      "name": "Collada visual scene group"
    },
    {
      "children": [
        4,
        6,
        8,
        10,
        12,
        14,
        16
      ],
      "matrix": [
        74.855400000000003,
        0,
        0,
        0,
        0,
        74.855400000000003,
        0,
        0,
        0,
        0,
        74.855400000000003,
        0,
        0,
        74.855400000000003,
        0,
        1
      ],
      "name": "root"
    },
    {
      "children": [
        5
      ],
      "name": "plank_low2"
    },
    {
      "mesh": 0,
      "name": "defaultMaterial"
    },
    {
      "children": [
        7
      ],
      "name": "brace_low2"
    },
    {
      "mesh": 1,
      "name": "defaultMaterial"
    },
    {
      "children": [
        9
      ],
      "name": "frame_low2"
    },
    {
      "mesh": 2,
      "name": "defaultMaterial"
    },
    {
      "children": [
        11
      ],
      "name": "plank_low4"
    },
    {
      "mesh": 3,
      "name": "defaultMaterial"
    },
    {
      "children": [
        13
      ],
      "name": "frame_low4"
    },
    {
      "mesh": 4,
      "name": "defaultMaterial"
    },
    {
      "children": [
        15
      ],
      "name": "brace_low4"
    },
    {
      "mesh": 5,
      "name": "defaultMaterial"
    },
    {
      "children": [
        17
      ],
      "name": "plank_low5"
    },
    {
      "mesh": 6,
      "name": "defaultMaterial"
    }
  ],
  "samplers": [
    {
      "magFilter": 9729,
      "minFilter": 9987,
      "wrapS": 10497,
      "wrapT": 10497
    }
  ],
  "scene": 0,
  "scenes": [
    {
      "name": "OSG_Scene",
      "nodes": [
        0
      ]
    }
  ],
  "textures": [
    {
      "sampler": 0,
      "source": 0
    },
    {
      "sampler": 0,
      "source": 1
    }
  ]
}

