{
  "accessors": [
    {
      "bufferView": 2,
      "componentType": 5126,
      "count": 396,
      "max": [
        0.65093773603439331,
        0.94068914651870728,
        3.5123052597045898
      ],
      "min": [
        -0.65093767642974854,
        -0.94069087505340576,
        -0.0094037540256977081
      ],
      "type": "VEC3"
    },
    {
      "bufferView": 2,
      "byteOffset": 4752,
      "componentType": 5126,
      "count": 396,
      "max": [
        1,
        1,
        1
      ],
      "min": [
        -1,
        -1,
        -1
      ],
      "type": "VEC3"
    },
    {
      "bufferView": 3,
      "componentType": 5126,
      "count": 396,
      "max": [
        1,
        1,
        0.99998748302459717,
        1
      ],
      "min": [
        -1,
        -1,
        -0.99984991550445557,
        -1
      ],
      "type": "VEC4"
    },
    {
      "bufferView": 1,
      "componentType": 5126,
      "count": 396,
      "max": [
        1,
        1
      ],
      "min": [
        0,
        0
      ],
      "type": "VEC2"
    },
    {
      "bufferView": 1,
      "byteOffset": 3168,
      "componentType": 5126,
      "count": 396,
      "max": [
        0.9999355673789978,
        0.99977535009384155
      ],
      "min": [
        -0.046129636466503143,
        6.4455474785063416e-05
      ],
      "type": "VEC2"
    },
    {
      "bufferView": 0,
      "componentType": 5125,
      "count": 612,
      "max": [
        395
      ],
      "min": [
        0
      ],
      "type": "SCALAR"
    },
    {
      "bufferView": 2,
      "byteOffset": 9504,
      "componentType": 5126,
      "count": 668,
      "max": [
        0.50668638944625854,
        2.1220924854278564,
        2.9423375129699707
      ],
      "min": [
        -0.50668638944625854,
        -2.1220924854278564,
        0
      ],
      "type": "VEC3"
    },
    {
      "bufferView": 2,
      "byteOffset": 17520,
      "componentType": 5126,
      "count": 668,
      "max": [
        0.95597028732299805,
        0.95532739162445068,
        0.92388033866882324
      ],
      "min": [
        -0.95597028732299805,
        -0.95532739162445068,
        -0.92388033866882324
      ],
      "type": "VEC3"
    },
    {
      "bufferView": 3,
      "byteOffset": 6336,
      "componentType": 5126,
      "count": 668,
      "max": [
        1,
        1,
        0.99999994039535522,
        1
      ],
      "min": [
        -0.92388033866882324,
        -0.92388039827346802,
        -1,
        1
      ],
      "type": "VEC4"
    },
    {
      "bufferView": 1,
      "byteOffset": 6336,
      "componentType": 5126,
      "count": 668,
      "max": [
        1,
        1
      ],
      "min": [
        0,
        0
      ],
      "type": "VEC2"
    },
    {
      "bufferView": 1,
      "byteOffset": 11680,
      "componentType": 5126,
      "count": 668,
      "max": [
        0.99985456466674805,
        0.36865472793579102
      ],
      "min": [
        0.00014549562183674425,
        0.00014549562183674425
      ],
      "type": "VEC2"
    },
    {
      "bufferView": 0,
      "byteOffset": 2448,
      "componentType": 5125,
      "count": 1608,
      "max": [
        667
      ],
      "min": [
        0
      ],
      "type": "SCALAR"
    },
    {
      "bufferView": 2,
      "byteOffset": 25536,
      "componentType": 5126,
      "count": 200,
      "max": [
        0.72397869825363159,
        2.2789211273193359,
        3.0238614082336426
      ],
      "min": [
        -0.72397869825363159,
        -2.2789211273193359,
        -1.0869099753563205e-07
      ],
      "type": "VEC3"
    },
    {
      "bufferView": 2,
      "byteOffset": 27936,
      "componentType": 5126,
      "count": 200,
      "max": [
        1,
        1,
        1
      ],
      "min": [
        -1,
        -1,
        -1
      ],
      "type": "VEC3"
    },
    {
      "bufferView": 3,
      "byteOffset": 17024,
      "componentType": 5126,
      "count": 200,
      "max": [
        1,
        1,
        0.70710718631744385,
        1
      ],
      "min": [
        -1,
        -1,
        -0.7071077823638916,
        -1
      ],
      "type": "VEC4"
    },
    {
      "bufferView": 1,
      "byteOffset": 17024,
      "componentType": 5126,
      "count": 200,
      "max": [
        1,
        0.99999994039535522
      ],
      "min": [
        0,
        0
      ],
      "type": "VEC2"
    },
    {
      "bufferView": 1,
      "byteOffset": 18624,
      "componentType": 5126,
      "count": 200,
      "max": [
        0.89857369661331177,
        0.99983137845993042
      ],
      "min": [
        -0.020629048347473145,
        0.00016862922348082066
      ],
      "type": "VEC2"
    },
    {
      "bufferView": 0,
      "byteOffset": 8880,
      "componentType": 5125,
      "count": 312,
      "max": [
        199
      ],
      "min": [
        0
      ],
      "type": "SCALAR"
    },
    {
      "bufferView": 2,
      "byteOffset": 30336,
      "componentType": 5126,
      "count": 795,
      "max": [
        0.9999997615814209,
        1.0000002384185791,
        2.994849681854248
      ],
      "min": [
        -1.0000002384185791,
        -0.9999997615814209,
        -0.011740796267986298
      ],
      "type": "VEC3"
    },
    {
      "bufferView": 2,
      "byteOffset": 39876,
      "componentType": 5126,
      "count": 795,
      "max": [
        1,
        1,
        1
      ],
      "min": [
        -1,
        -1,
        -1
      ],
      "type": "VEC3"
    },
    {
      "bufferView": 3,
      "byteOffset": 20224,
      "componentType": 5126,
      "count": 795,
      "max": [
        1,
        1,
        1,
        1
      ],
      "min": [
        -0.99999815225601196,
        -1,
        -1,
        1
      ],
      "type": "VEC4"
    },
    {
      "bufferView": 1,
      "byteOffset": 20224,
      "componentType": 5126,
      "count": 795,
      "max": [
        0.99342107772827148,
        0.99337810277938843
      ],
      "min": [
        0.0065788798965513706,
        0.0066219023428857327
      ],
      "type": "VEC2"
    },
    {
      "bufferView": 1,
      "byteOffset": 26584,
      "componentType": 5126,
      "count": 795,
      "max": [
        0.99983596801757812,
        0.91976660490036011
      ],
      "min": [
        0.00016406145005021244,
        0.00016406145005021244
      ],
      "type": "VEC2"
    },
    {
      "bufferView": 0,
      "byteOffset": 10128,
      "componentType": 5125,
      "count": 1980,
      "max": [
        794
      ],
      "min": [
        0
      ],
      "type": "SCALAR"
    },
    {
      "bufferView": 2,
      "byteOffset": 49416,
      "componentType": 5126,
      "count": 576,
      "max": [
        0.92826640605926514,
        2.0105245113372803,
        3.0896527767181396
      ],
      "min": [
        -0.92826640605926514,
        -2.0105254650115967,
        0
      ],
      "type": "VEC3"
    },
    {
      "bufferView": 2,
      "byteOffset": 56328,
      "componentType": 5126,
      "count": 576,
      "max": [
        1,
        1,
        1
      ],
      "min": [
        -1,
        -1,
        -1
      ],
      "type": "VEC3"
    },
    {
      "bufferView": 3,
      "byteOffset": 32944,
      "componentType": 5126,
      "count": 576,
      "max": [
        1,
        1,
        1,
        1
      ],
      "min": [
        -1,
        -6.1973751144250855e-06,
        -1,
        1
      ],
      "type": "VEC4"
    },
    {
      "bufferView": 1,
      "byteOffset": 32944,
      "componentType": 5126,
      "count": 576,
      "max": [
        0.99458634853363037,
        0.99475008249282837
      ],
      "min": [
        0.0054136482067406178,
        0.005249920766800642
      ],
      "type": "VEC2"
    },
    {
      "bufferView": 1,
      "byteOffset": 37552,
      "componentType": 5126,
      "count": 576,
      "max": [
        0.99978435039520264,
        0.99962174892425537
      ],
      "min": [
        0.00021562917390838265,
        0.00021562917390838265
      ],
      "type": "VEC2"
    },
    {
      "bufferView": 0,
      "byteOffset": 18048,
      "componentType": 5125,
      "count": 1272,
      "max": [
        575
      ],
      "min": [
        0
      ],
      "type": "SCALAR"
    }
  ],
  "asset": {
    "extras": {
      "author": "Blender3D (https://sketchfab.com/Blender3D)",
      "license": "CC-BY-4.0 (http://creativecommons.org/licenses/by/4.0/)",
      "source": "https://sketchfab.com/3d-models/traffic-props-e551613ced47452c8bcbbb79311243db",
      "title": "Traffic Props"
    },
    "generator": "Sketchfab-6.0.0",
    "version": "2.0"
  },
  "bufferViews": [
    {
      "buffer": 0,
      "byteLength": 23136,
      "byteOffset": 0,
      "name": "floatBufferViews",
      "target": 34963
    },
    {
      "buffer": 0,
      "byteLength": 42160,
      "byteOffset": 23136,
      "byteStride": 8,
      "name": "floatBufferViews",
      "target": 34962
    },
    {
      "buffer": 0,
      "byteLength": 63240,
      "byteOffset": 65296,
      "byteStride": 12,
      "name": "floatBufferViews",
      "target": 34962
    },
    {
      "buffer": 0,
      "byteLength": 42160,
      "byteOffset": 128536,
      "byteStride": 16,
      "name": "floatBufferViews",
      "target": 34962
    }
  ],
  "buffers": [
    {
      "byteLength": 170696,
      "uri": "scene.bin"
    }
  ],
  "extensionsRequired": [
    "KHR_materials_pbrSpecularGlossiness"
  ],
  "extensionsUsed": [
    "KHR_materials_pbrSpecularGlossiness"
  ],
  "images": [
    {
      "uri": "textures/Material_diffuse.jpeg"
    },
    {
      "uri": "textures/Material_occlusion.png"
    },
    {
      "uri": "textures/Material.003_diffuse.jpeg"
    },
    {
      "uri": "textures/Material.003_occlusion.png"
    },
    {
      "uri": "textures/Material.004_diffuse.jpeg"
    },
    {
      "uri": "textures/Material.004_occlusion.png"
    },
    {
      "uri": "textures/Material.002_diffuse.jpeg"
    },
    {
      "uri": "textures/Material.002_occlusion.png"
    },
    {
      "uri": "textures/Material.001_diffuse.jpeg"
    },
    {
      "uri": "textures/Material.001_occlusion.png"
    }
  ],
  "materials": [
    {
      "doubleSided": true,
      "extensions": {
        "KHR_materials_pbrSpecularGlossiness": {
          "diffuseFactor": [
            1,
            1,
            1,
            1
          ],
          "diffuseTexture": {
            "index": 0,
            "texCoord": 0
          },
          "glossinessFactor": 0.17605827430000001,
          "specularFactor": [
            0,
            0,
            0
          ]
        }
      },
      "name": "Material",
      "occlusionTexture": {
        "index": 1,
        "strength": 1,
        "texCoord": 0
      }
    },
    {
      "doubleSided": true,
      "extensions": {
        "KHR_materials_pbrSpecularGlossiness": {
          "diffuseFactor": [
            1,
            1,
            1,
            1
          ],
          "diffuseTexture": {
            "index": 2,
            "texCoord": 0
          },
          "glossinessFactor": 0.17605827430000001,
          "specularFactor": [
            0,
            0,
            0
          ]
        }
      },
      "name": "Material.003",
      "occlusionTexture": {
        "index": 3,
        "strength": 1,
        "texCoord": 0
      }
    },
    {
      "doubleSided": true,
      "extensions": {
        "KHR_materials_pbrSpecularGlossiness": {
          "diffuseFactor": [
            1,
            1,
            1,
            1
          ],
          "diffuseTexture": {
            "index": 4,
            "texCoord": 0
          },
          "glossinessFactor": 0.17605827430000001,
          "specularFactor": [
            0,
            0,
            0
          ]
        }
      },
      "name": "Material.004",
      "occlusionTexture": {
        "index": 5,
        "strength": 1,
        "texCoord": 0
      }
    },
    {
      "doubleSided": true,
      "extensions": {
        "KHR_materials_pbrSpecularGlossiness": {
          "diffuseFactor": [
            1,
            1,
            1,
            1
          ],
          "diffuseTexture": {
            "index": 6,
            "texCoord": 0
          },
          "glossinessFactor": 0.17605827430000001,
          "specularFactor": [
            0,
            0,
            0
          ]
        }
      },
      "name": "Material.002",
      "occlusionTexture": {
        "index": 7,
        "strength": 1,
        "texCoord": 0
      }
    },
    {
      "doubleSided": true,
      "extensions": {
        "KHR_materials_pbrSpecularGlossiness": {
          "diffuseFactor": [
            1,
            1,
            1,
            1
          ],
          "diffuseTexture": {
            "index": 8,
            "texCoord": 0
          },
          "glossinessFactor": 0.17605827430000001,
          "specularFactor": [
            0,
            0,
            0
          ]
        }
      },
      "name": "Material.001",
      "occlusionTexture": {
        "index": 9,
        "strength": 1,
        "texCoord": 0
      }
    }
  ],
  "meshes": [
    {
      "name": "traffic_sign.002_Material_0",
      "primitives": [
        {
          "attributes": {
            "NORMAL": 1,
            "POSITION": 0,
            "TANGENT": 2,
            "TEXCOORD_0": 3,
            "TEXCOORD_1": 4
          },
          "indices": 5,
          "material": 0,
          "mode": 4
        }
      ]
    },
    {
      "name": "Cube.009_Material.003_0",
      "primitives": [
        {
          "attributes": {
            "NORMAL": 7,
            "POSITION": 6,
            "TANGENT": 8,
            "TEXCOORD_0": 9,
            "TEXCOORD_1": 10
          },
          "indices": 11,
          "material": 1,
          "mode": 4
        }
      ]
    },
    {
      "name": "traffic_sign_Material.004_0",
      "primitives": [
        {
          "attributes": {
            "NORMAL": 13,
            "POSITION": 12,
            "TANGENT": 14,
            "TEXCOORD_0": 15,
            "TEXCOORD_1": 16
          },
          "indices": 17,
          "material": 2,
          "mode": 4
        }
      ]
    },
    {
      "name": "traffic_cone_tall_Material.002_0",
      "primitives": [
        {
          "attributes": {
            "NORMAL": 19,
            "POSITION": 18,
            "TANGENT": 20,
            "TEXCOORD_0": 21,
            "TEXCOORD_1": 22
          },
          "indices": 23,
          "material": 3,
          "mode": 4
        }
      ]
    },
    {
      "name": "jersey_barrier_Material.001_0",
      "primitives": [
        {
          "attributes": {
            "NORMAL": 25,
            "POSITION": 24,
            "TANGENT": 26,
            "TEXCOORD_0": 27,
            "TEXCOORD_1": 28
          },
          "indices": 29,
          "material": 4,
          "mode": 4
        }
      ]
    }
  ],
  "nodes": [
    {
      "children": [
        1
      ],
      "name": "RootNode (gltf orientation matrix)",
      "rotation": [
        -0.70710678118654746,
        -0,
        -0,
        0.70710678118654757
      ]
    },
    {
      "children": [
        2
      ],
      "name": "RootNode (model correction matrix)"
    },
    {
      "children": [
        3
      ],
      "matrix": [
        1,
        0,
        0,
        0,
        0,
        0,
        1,
        0,
        0,
        -1,
        0,
        0,
        0,
        0,
        0,
        1
      ],
      "name": "Showcase.fbx"
    },
    {
      "children": [
        4,
        6,
        8,
        10,
        12
      ],
      "name": "RootNode"
    },
    {
      "children": [
        5
      ],
      "matrix": [
        100,
        0,
        0,
        0,
        0,
        -1.6292067939183141e-05,
        -99.999999999998678,
        0,
        0,
        99.999999999998678,
        -1.6292067939183141e-05,
        0,
        0,
        0,
        -900,
        1
      ],
      "name": "traffic_sign.002"
    },
    {
      "mesh": 0,
      "name": "traffic_sign.002_Material_0"
    },
    {
      "children": [
        7
      ],
      "matrix": [
        100,
        0,
        0,
        0,
        0,
        -1.6292067939183141e-05,
        -99.999999999998678,
        0,
        0,
        99.999999999998678,
        -1.6292067939183141e-05,
        0,
        0,
        0,
        -500,
        1
      ],
      "name": "Cube.009"
    },
    {
      "mesh": 1,
      "name": "Cube.009_Material.003_0"
    },
    {
      "children": [
        9
      ],
      "matrix": [
        100,
        0,
        0,
        0,
        0,
        -1.6292067939183141e-05,
        -99.999999999998678,
        0,
        0,
        99.999999999998678,
        -1.6292067939183141e-05,
        0,
        0,
        0,
        800,
        1
      ],
      "name": "traffic_sign"
    },
    {
      "mesh": 2,
      "name": "traffic_sign_Material.004_0"
    },
    {
      "children": [
        11
      ],
      "matrix": [
        100,
        0,
        0,
        0,
        0,
        -1.6292067939183141e-05,
        -99.999999999998678,
        0,
        0,
        99.999999999998678,
        -1.6292067939183141e-05,
        0,
        0,
        0,
        400,
        1
      ],
      "name": "traffic_cone_tall"
    },
    {
      "mesh": 3,
      "name": "traffic_cone_tall_Material.002_0"
    },
    {
      "children": [
        13
      ],
      "matrix": [
        100,
        0,
        0,
        0,
        0,
        -1.6292067939183141e-05,
        -99.999999999998678,
        0,
        0,
        99.999999999998678,
        -1.6292067939183141e-05,
        0,
        0,
        0,
        0,
        1
      ],
      "name": "jersey_barrier"
    },
    {
      "mesh": 4,
      "name": "jersey_barrier_Material.001_0"
    }
  ],
  "samplers": [
    {
      "magFilter": 9729,
      "minFilter": 9987,
      "wrapS": 10497,
      "wrapT": 10497
    }
  ],
  "scene": 0,
  "scenes": [
    {
      "name": "OSG_Scene",
      "nodes": [
        0
      ]
    }
  ],
  "textures": [
    {
      "sampler": 0,
      "source": 0
    },
    {
      "sampler": 0,
      "source": 1
    },
    {
      "sampler": 0,
      "source": 2
    },
    {
      "sampler": 0,
      "source": 3
    },
    {
      "sampler": 0,
      "source": 4
    },
    {
      "sampler": 0,
      "source": 5
    },
    {
      "sampler": 0,
      "source": 6
    },
    {
      "sampler": 0,
      "source": 7
    },
    {
      "sampler": 0,
      "source": 8
    },
    {
      "sampler": 0,
      "source": 9
    }
  ]
}

